<?xml version="1.0" encoding="UTF-8"?>
<svg width="300px" height="299px" viewBox="0 0 300 299" version="1.1" xmlns="http://www.w3.org/2000/svg" xmlns:xlink="http://www.w3.org/1999/xlink">
    <!-- Generator: Sketch 52.4 (67378) - http://www.bohemiancoding.com/sketch -->
    <title>mvclogo1</title>
    <desc>Created with Sketch.</desc>
    <g id="Page-1" stroke="none" stroke-width="1" fill="none" fill-rule="evenodd">
        <g id="mvclogo1">
            <rect id="Rectangle" fill="#009687" x="0" y="0" width="299.9869" height="298.663507"></rect>
            <polygon id="Path" fill="#FFFFFF" points="63.9694323 166.037915 66.3537118 166.037915 74.3973799 187.236967 82.441048 166.037915 84.8253275 166.037915 74.3449782 193.478673"></polygon>
            <path d="M105.471616,192.227488 L103.100437,192.227488 L100.873362,186.255924 L89.2663755,186.255924 L87.0131004,192.227488 L84.628821,192.227488 L95.1091703,164.78673 L105.471616,192.227488 Z M90.1572052,183.909953 L99.9432314,183.909953 L95.0567686,171.028436 L90.1572052,183.909953 Z" id="Shape" fill="#FFFFFF" fill-rule="nonzero"></path>
            <path d="M127.768559,171.14218 C125.797343,169.002313 123.128595,167.791643 120.340611,167.772512 C114.552474,167.772512 109.860262,172.865008 109.860262,179.146919 C109.860262,185.428831 114.552474,190.521327 120.340611,190.521327 C123.116463,190.491994 125.775763,189.305971 127.768559,187.208531 L129.275109,188.843602 C125.664978,192.783074 120.222079,193.970623 115.489676,191.851351 C110.757274,189.73208 107.669724,184.724413 107.669724,179.168246 C107.669724,173.61208 110.757274,168.604413 115.489676,166.485142 C120.222079,164.36587 125.664978,165.553419 129.275109,169.492891 L127.768559,171.14218 Z" id="Path" fill="#FFFFFF"></path>
            <path d="M153.90393,192.227488 L151.519651,192.227488 L149.240175,186.255924 L137.68559,186.255924 L135.432314,192.227488 L133.048035,192.227488 L143.528384,164.78673 L153.90393,192.227488 Z M138.58952,183.909953 L148.375546,183.909953 L143.489083,171.028436 L138.58952,183.909953 Z" id="Shape" fill="#FFFFFF" fill-rule="nonzero"></path>
            <polygon id="Path" fill="#FFFFFF" points="165.065502 168.412322 165.065502 192.227488 162.877729 192.227488 162.877729 168.412322 154.676856 168.412322 154.676856 166.037915 173.279476 166.037915 173.279476 168.412322"></polygon>
            <polygon id="Path" fill="#FFFFFF" points="179.580786 166.037915 181.768559 166.037915 181.768559 192.227488 179.580786 192.227488"></polygon>
            <path d="M200.004367,192.824645 C194.900593,192.824642 190.299616,189.487166 188.347713,184.369092 C186.395809,179.251018 187.47756,173.360755 191.088347,169.446007 C194.699135,165.53126 200.127529,164.363347 204.841278,166.487081 C209.555028,168.610814 212.625387,173.607755 212.620087,179.146919 C212.612857,186.703218 206.966724,192.824649 200.004367,192.824645 Z M200.004367,167.758294 C195.755059,167.706408 191.897506,170.444554 190.238132,174.690507 C188.578759,178.936459 189.446076,183.849634 192.433935,187.129277 C195.421794,190.40892 199.938678,191.405751 203.86941,189.65297 C207.800143,187.900189 210.366543,183.744802 210.366812,179.132701 C210.360004,172.905965 205.741307,167.842558 200.004367,167.772512 L200.004367,167.758294 Z" id="Shape" fill="#FFFFFF" fill-rule="nonzero"></path>
            <polygon id="Path" fill="#FFFFFF" points="219.799127 171.483412 219.799127 192.227488 217.611354 192.227488 217.611354 164.78673 234.052402 186.781991 234.052402 166.037915 236.240175 166.037915 236.240175 193.478673"></polygon>
            <path d="M124.454148,208.236967 C122.485066,206.091884 119.816055,204.875986 117.026201,204.853081 C111.238064,204.853081 106.545852,209.945576 106.545852,216.227488 C106.545852,222.5094 111.238064,227.601896 117.026201,227.601896 C119.800235,227.576383 122.45929,226.395559 124.454148,224.303318 L125.960699,225.938389 C122.350567,229.877861 116.907669,231.065409 112.175266,228.946138 C107.442863,226.826866 104.355314,221.8192 104.355314,216.263033 C104.355314,210.706867 107.442863,205.6992 112.175266,203.579929 C116.907669,201.460657 122.350567,202.648206 125.960699,206.587678 L124.454148,208.236967 Z" id="Path" fill="#FFFFFF"></path>
            <polygon id="Path" fill="#FFFFFF" points="148.912664 229.322275 132.471616 229.322275 132.471616 203.146919 134.659389 203.146919 134.659389 226.962085 148.912664 226.962085"></polygon>
            <path d="M151.965066,219.796209 L151.965066,203.146919 L154.152838,203.146919 L154.152838,219.796209 C154.152838,224.067909 157.343543,227.530806 161.279476,227.530806 C165.215409,227.530806 168.406114,224.067909 168.406114,219.796209 L168.406114,203.146919 L170.593886,203.146919 L170.593886,219.796209 C170.593886,225.379258 166.423683,229.905213 161.279476,229.905213 C156.135269,229.905213 151.965066,225.379258 151.965066,219.796209 Z" id="Path" fill="#FFFFFF"></path>
            <path d="M188.292576,229.322275 L177.026201,229.322289 L177.026201,203.146919 L187.742358,203.146919 C191.219486,203.154741 194.036462,206.212027 194.043668,209.985782 C194.032641,212.228575 192.918671,214.294177 191.122271,215.402844 C193.539783,216.500573 195.121793,219.056451 195.144105,221.900474 C195.144108,223.871324 194.421835,225.761246 193.136546,227.153513 C191.851257,228.54578 190.108509,229.32605 188.292576,229.322275 Z M187.742358,214.450237 C190.017819,214.450237 191.862445,212.44825 191.862445,209.978673 C191.862445,207.509096 190.017819,205.507109 187.742358,205.507109 L179.213974,205.507109 L179.213974,214.450237 L187.742358,214.450237 Z M188.292576,216.824645 L179.213974,216.824645 L179.213974,226.947867 L188.292576,226.947867 C190.868297,226.947867 192.956332,224.681707 192.956332,221.886256 C192.956332,219.090805 190.868297,216.824645 188.292576,216.824645 Z" id="Shape" fill="#FFFFFF" fill-rule="nonzero"></path>
            <polygon id="Path" fill="#FFFFFF" points="95.8951965 143.601896 97.7816594 143.601896 100.755459 149.104265 103.689956 143.601896 105.576419 143.601896 106.087336 155.246445 104.10917 155.246445 103.755459 147.184834 101.135371 151.933649 100.19214 151.933649 97.5720524 147.312796 97.2183406 155.260664 95.3842795 155.260664"></polygon>
            <path d="M116.056769,143.601896 L118.152838,143.601896 L122.227074,155.246445 L119.973799,155.246445 L119.043668,152.2891 L115.113537,152.2891 L114.183406,155.246445 L111.995633,155.246445 L116.056769,143.601896 Z M118.454148,150.483412 L117.039301,145.962085 L115.611354,150.483412 L118.454148,150.483412 Z" id="Shape" fill="#FFFFFF" fill-rule="nonzero"></path>
            <path d="M128.253275,143.601896 L131.803493,143.601896 C132.39004,143.583756 132.973877,143.695006 133.519651,143.92891 C133.951042,144.12226 134.339566,144.413065 134.659389,144.781991 C134.940709,145.1058 135.159027,145.487809 135.30131,145.905213 C135.427696,146.278803 135.49416,146.673135 135.497817,147.07109 C135.509252,147.75153 135.355645,148.423275 135.052402,149.018957 C134.757211,149.624937 134.300706,150.120385 133.742358,150.440758 L136.218341,155.317536 L133.938865,155.317536 L131.724891,150.7109 L130.20524,150.7109 L130.20524,155.303318 L128.253275,155.303318 L128.253275,143.601896 Z M131.829694,148.834123 C132.272093,148.862561 132.705001,148.687017 133.021834,148.350711 C133.304061,148.034872 133.459506,147.61055 133.454148,147.170616 C133.471506,146.713043 133.3097,146.268856 133.008734,145.947867 C132.689564,145.626256 132.26477,145.457211 131.829694,145.478673 L130.20524,145.478673 L130.20524,148.848341 L131.829694,148.834123 Z" id="Shape" fill="#FFFFFF" fill-rule="nonzero"></path>
            <path d="M142.50655,143.601896 L146.056769,143.601896 C146.643315,143.583756 147.227153,143.695006 147.772926,143.92891 C148.204317,144.12226 148.592841,144.413065 148.912664,144.781991 C149.193984,145.1058 149.412302,145.487809 149.554585,145.905213 C149.680971,146.278803 149.747435,146.673135 149.751092,147.07109 C149.762527,147.75153 149.60892,148.423275 149.305677,149.018957 C149.010486,149.624937 148.553981,150.120385 147.995633,150.440758 L150.471616,155.317536 L148.19214,155.317536 L145.978166,150.7109 L144.445415,150.7109 L144.445415,155.303318 L142.49345,155.303318 L142.50655,143.601896 Z M146.082969,148.834123 C146.525368,148.862561 146.958276,148.687017 147.275109,148.350711 C147.557336,148.034872 147.712781,147.61055 147.707424,147.170616 C147.724781,146.713043 147.562975,146.268856 147.262009,145.947867 C146.942839,145.626256 146.518045,145.457211 146.082969,145.478673 L144.458515,145.478673 L144.458515,148.848341 L146.082969,148.834123 Z" id="Shape" fill="#FFFFFF" fill-rule="nonzero"></path>
            <polygon id="Path" fill="#FFFFFF" points="156.759825 143.601896 158.790393 143.601896 158.790393 155.246445 156.759825 155.246445"></polygon>
            <path d="M171.026201,155.559242 C170.273907,155.564934 169.528788,155.400292 168.838428,155.075829 C168.175428,154.763812 167.574736,154.314701 167.069869,153.753555 C166.561094,153.187794 166.156477,152.521854 165.877729,151.791469 C165.299712,150.260835 165.299712,148.544852 165.877729,147.014218 C166.153455,146.289705 166.553571,145.628682 167.056769,145.066351 C168.092647,143.921676 169.508578,143.276253 170.9869,143.274882 C171.739193,143.269189 172.484313,143.433832 173.174672,143.758294 C176.011977,145.122465 177.326607,148.695723 176.135371,151.805687 C175.856339,152.535908 175.451756,153.201793 174.943231,153.767773 C174.438581,154.329198 173.837835,154.77835 173.174672,155.090047 C172.495504,155.40387 171.76435,155.563543 171.026201,155.559242 Z M171.026201,153.483412 C171.996577,153.49982 172.923297,153.046439 173.554585,152.246445 C173.861422,151.857637 174.097078,151.408852 174.248908,150.924171 C174.571306,149.901129 174.571306,148.790814 174.248908,147.767773 C174.095534,147.292422 173.859865,146.853264 173.554585,146.473934 C173.253362,146.100293 172.882833,145.7999 172.467249,145.592417 C171.551839,145.163015 170.513664,145.163015 169.598253,145.592417 C169.18287,145.800268 168.812408,146.100607 168.510917,146.473934 C168.205637,146.853264 167.969968,147.292422 167.816594,147.767773 C167.494197,148.790814 167.494197,149.901129 167.816594,150.924171 C167.968424,151.408852 168.20408,151.857637 168.510917,152.246445 C169.139931,153.049726 170.068161,153.503846 171.039301,153.483412 L171.026201,153.483412 Z" id="Shape" fill="#FFFFFF" fill-rule="nonzero"></path>
            <polygon id="Path" fill="#FFFFFF" points="185.266376 145.535545 181.624454 145.535545 181.624454 143.601896 190.925764 143.601896 190.925764 145.535545 187.336245 145.535545 187.336245 155.246445 185.305677 155.246445"></polygon>
            <polygon id="Path" fill="#FFFFFF" points="199.572052 145.535545 195.930131 145.535545 195.930131 143.601896 205.231441 143.601896 205.231441 145.535545 201.58952 145.535545 201.58952 155.246445 199.558952 155.246445"></polygon>
            <path d="M136.244541,99.6398104 L132.248908,108.511848 C129.537118,113.758294 125.69869,120.170616 119.882096,121.777251 C117.615721,122.630332 115.624454,121.862559 113.436681,121.691943 L106.388646,134.218009 C106.952768,134.845532 107.637014,135.330904 108.393013,135.63981 C120.759825,140.758294 125.764192,135.270142 137.973799,105.312796 L149.515284,132 L164.882096,132 L157.624454,113.985782 L161.737991,104.672986 L173.082969,131.587678 L187.79476,131.687204 L162.052402,70.2938389 L150.262009,76.6919431 L159.550218,99.5971564 L155.475983,108.597156 L138.445415,68.7014218 L125.895197,75.6113744 L136.244541,99.6398104 Z" id="Path" fill="#FFFFFF"></path>
            <path d="M201.262009,208.450237 C200.219876,209.582937 198.585652,209.75901 197.358666,208.870788 C196.131681,207.982566 195.653624,206.277399 196.216827,204.797999 C196.78003,203.318599 198.227654,202.476947 199.674475,202.787715 C201.121295,203.098483 202.164404,204.475127 202.165939,206.075829 C202.180364,206.968956 201.853088,207.828631 201.262009,208.450237 Z M197.200873,204.042654 C196.702388,204.58043 196.423888,205.313022 196.427948,206.075829 C196.420353,206.843555 196.699125,207.581989 197.200873,208.123223 C197.694277,208.674817 198.372441,208.98609 199.080786,208.98609 C199.789131,208.98609 200.467295,208.674817 200.960699,208.123223 C201.473062,207.587251 201.762513,206.848151 201.762513,206.075829 C201.762513,205.303508 201.473062,204.564407 200.960699,204.028436 C200.467754,203.481291 199.792425,203.172866 199.087336,203.172866 C198.382248,203.172866 197.706918,203.481291 197.213974,204.028436 L197.200873,204.042654 Z M199.021834,204.227488 C199.336445,204.2091 199.651532,204.252448 199.951965,204.35545 C200.295289,204.504407 200.508177,204.879862 200.475983,205.279621 C200.493447,205.56735 200.368728,205.843481 200.148472,206.004739 C199.999724,206.100469 199.834984,206.163288 199.663755,206.189573 C199.893224,206.215415 200.102254,206.344313 200.240175,206.545024 C200.35323,206.709913 200.417217,206.908327 200.423581,207.113744 L200.423581,207.383886 C200.423581,207.469194 200.423581,207.559242 200.423581,207.654028 C200.414742,207.715266 200.414742,207.777625 200.423581,207.838863 L199.860262,207.838863 L199.860262,207.35545 C199.903009,207.034688 199.78277,206.713883 199.545852,206.516588 C199.334611,206.42169 199.105597,206.382701 198.877729,206.402844 L198.406114,206.402844 L198.406114,207.824645 L197.816594,207.824645 L197.816594,204.156398 L199.021834,204.227488 Z M199.663755,204.810427 C199.437541,204.701082 199.190432,204.652321 198.943231,204.668246 L198.432314,204.668246 L198.432314,206.004739 L198.969432,206.004739 C199.160367,206.012479 199.351062,205.983601 199.532751,205.919431 C199.717696,205.818164 199.843326,205.622752 199.86707,205.399413 C199.890814,205.176073 199.80949,204.954745 199.650655,204.810427 L199.663755,204.810427 Z" id="Shape" fill="#FFFFFF" fill-rule="nonzero"></path>
        </g>
    </g>
</svg>